<svg width="1886" height="176" viewBox="0 0 1886 176" fill="none" xmlns="http://www.w3.org/2000/svg">
<g opacity="0.25">
<rect x="2" y="59" width="3" height="58" fill="#C175FC"/>
<rect x="11" y="63" width="3" height="50" fill="#C175FC"/>
<rect x="20" y="72" width="3" height="32" fill="#C175FC"/>
<rect x="29" y="80" width="3" height="16" fill="#C175FC"/>
<rect x="38" y="70" width="3" height="36" fill="#C175FC"/>
<rect x="47" y="63" width="3" height="50" fill="#C175FC"/>
<rect x="56" y="72" width="3" height="32" fill="#C175FC"/>
<rect x="65" y="67" width="3" height="42" fill="#C175FC"/>
<rect x="74" y="63" width="3" height="50" fill="#C175FC"/>
<rect x="83" y="59" width="3" height="58" fill="#C175FC"/>
<rect x="92" y="51" width="3" height="74" fill="#C175FC"/>
<rect x="101" y="67" width="3" height="42" fill="#C175FC"/>
<rect x="110" y="45" width="3" height="86" fill="#C175FC"/>
<rect x="119" y="55" width="3" height="66" fill="#C175FC"/>
<rect x="128" y="59" width="3" height="58" fill="#C175FC"/>
<rect x="137" y="63" width="3" height="50" fill="#C175FC"/>
<rect x="146" y="72" width="3" height="32" fill="#C175FC"/>
<rect x="155" y="80" width="3" height="16" fill="#C175FC"/>
<rect x="164" y="70" width="3" height="36" fill="#C175FC"/>
<rect x="173" y="63" width="3" height="50" fill="#C175FC"/>
<rect x="182" y="72" width="3" height="32" fill="#C175FC"/>
<rect x="191" y="67" width="3" height="42" fill="#C175FC"/>
<rect x="200" y="63" width="3" height="50" fill="#C175FC"/>
<rect x="209" y="59" width="3" height="58" fill="#C175FC"/>
<rect x="218" y="51" width="3" height="74" fill="#C175FC"/>
<rect x="227" y="67" width="3" height="42" fill="#C175FC"/>
<rect x="236" y="45" width="3" height="86" fill="#C175FC"/>
<rect x="245" y="55" width="3" height="66" fill="#C175FC"/>
<rect x="254" y="59" width="3" height="58" fill="#C175FC"/>
<rect x="263" y="55" width="3" height="66" fill="#C175FC"/>
<rect x="272" y="66" width="3" height="44" fill="#C175FC"/>
<rect x="281" y="77" width="3" height="22" fill="#C175FC"/>
<rect x="290" y="51" width="3" height="74" fill="#C175FC"/>
<rect x="299" y="37" width="3" height="102" fill="#C175FC"/>
<rect x="308" y="54" width="3" height="68" fill="#C175FC"/>
<rect x="317" y="46" width="3" height="84" fill="#C175FC"/>
<rect x="326" y="37" width="3" height="102" fill="#C175FC"/>
<rect x="335" y="29" width="3" height="118" fill="#C175FC"/>
<rect x="344" y="12" width="3" height="152" fill="#C175FC"/>
<rect x="353" y="46" width="3" height="84" fill="#C175FC"/>
<rect x="362" width="3" height="176" fill="#C175FC"/>
<rect x="371" y="21" width="3" height="134" fill="#C175FC"/>
<rect x="380" y="50" width="3" height="76" fill="#C175FC"/>
<rect x="389" y="55" width="3" height="66" fill="#C175FC"/>
<rect x="398" y="66" width="3" height="44" fill="#C175FC"/>
<rect x="407" y="77" width="3" height="22" fill="#C175FC"/>
<rect x="416" y="64" width="3" height="48" fill="#C175FC"/>
<rect x="425" y="55" width="3" height="66" fill="#C175FC"/>
<rect x="434" y="66" width="3" height="44" fill="#C175FC"/>
<rect x="443" y="61" width="3" height="54" fill="#C175FC"/>
<rect x="452" y="55" width="3" height="66" fill="#C175FC"/>
<rect x="461" y="50" width="3" height="76" fill="#C175FC"/>
<rect x="470" y="39" width="3" height="98" fill="#C175FC"/>
<rect x="479" y="61" width="3" height="54" fill="#C175FC"/>
<rect x="488" y="31" width="3" height="114" fill="#C175FC"/>
<rect x="497" y="45" width="3" height="86" fill="#C175FC"/>
<rect x="506" y="50" width="3" height="76" fill="#C175FC"/>
<rect x="515" y="55" width="3" height="66" fill="#C175FC"/>
<rect x="524" y="66" width="3" height="44" fill="#C175FC"/>
<rect x="533" y="77" width="3" height="22" fill="#C175FC"/>
<rect x="542" y="64" width="3" height="48" fill="#C175FC"/>
<rect x="551" y="55" width="3" height="66" fill="#C175FC"/>
<rect x="560" y="66" width="3" height="44" fill="#C175FC"/>
<rect x="569" y="61" width="3" height="54" fill="#C175FC"/>
<rect x="578" y="55" width="3" height="66" fill="#C175FC"/>
<rect x="587" y="50" width="3" height="76" fill="#C175FC"/>
<rect x="596" y="39" width="3" height="98" fill="#C175FC"/>
<rect x="605" y="61" width="3" height="54" fill="#C175FC"/>
<rect x="614" y="31" width="3" height="114" fill="#C175FC"/>
<rect x="623" y="45" width="3" height="86" fill="#C175FC"/>
<rect x="632" y="50" width="3" height="76" fill="#C175FC"/>
<rect x="641" y="37" width="3" height="102" fill="#C175FC"/>
<rect x="650" y="54" width="3" height="68" fill="#C175FC"/>
<rect x="659" y="71" width="3" height="34" fill="#C175FC"/>
<rect x="668" y="50" width="3" height="76" fill="#C175FC"/>
<rect x="677" y="37" width="3" height="102" fill="#C175FC"/>
<rect x="686" y="54" width="3" height="68" fill="#C175FC"/>
<rect x="695" y="46" width="3" height="84" fill="#C175FC"/>
<rect x="704" y="37" width="3" height="102" fill="#C175FC"/>
<rect x="713" y="29" width="3" height="118" fill="#C175FC"/>
<rect x="722" y="12" width="3" height="152" fill="#C175FC"/>
<rect x="731" y="46" width="3" height="84" fill="#C175FC"/>
<rect width="3" height="50" transform="matrix(-1 0 0 1 743 63)" fill="#C175FC"/>
<rect width="3" height="38" transform="matrix(-1 0 0 1 752 69)" fill="#C175FC"/>
<rect width="3" height="34" transform="matrix(-1 0 0 1 761 71)" fill="#C175FC"/>
<rect width="3" height="28" transform="matrix(-1 0 0 1 770 74)" fill="#C175FC"/>
<rect width="3" height="20" transform="matrix(-1 0 0 1 779 78)" fill="#C175FC"/>
<rect width="3" height="10" transform="matrix(-1 0 0 1 788 83)" fill="#C175FC"/>
<rect width="3" height="22" transform="matrix(-1 0 0 1 797 77)" fill="#C175FC"/>
<rect width="3" height="28" transform="matrix(-1 0 0 1 806 74)" fill="#C175FC"/>
<rect width="3" height="20" transform="matrix(-1 0 0 1 815 78)" fill="#C175FC"/>
<rect width="3" height="24" transform="matrix(-1 0 0 1 824 76)" fill="#C175FC"/>
<rect width="3" height="28" transform="matrix(-1 0 0 1 833 74)" fill="#C175FC"/>
<rect width="3" height="34" transform="matrix(-1 0 0 1 842 71)" fill="#C175FC"/>
<rect width="3" height="42" transform="matrix(-1 0 0 1 851 67)" fill="#C175FC"/>
<rect width="3" height="24" transform="matrix(-1 0 0 1 860 76)" fill="#C175FC"/>
<rect width="3" height="50" transform="matrix(-1 0 0 1 869 63)" fill="#C175FC"/>
<rect width="3" height="38" transform="matrix(-1 0 0 1 878 69)" fill="#C175FC"/>
<rect x="884" y="50" width="3" height="76" fill="#C175FC"/>
<rect x="893" y="55" width="3" height="66" fill="#C175FC"/>
<rect x="902" y="66" width="3" height="44" fill="#C175FC"/>
<rect x="911" y="77" width="3" height="22" fill="#C175FC"/>
<rect x="920" y="64" width="3" height="48" fill="#C175FC"/>
<rect x="929" y="55" width="3" height="66" fill="#C175FC"/>
<rect x="938" y="66" width="3" height="44" fill="#C175FC"/>
<rect x="946" y="67" width="3" height="42" fill="#C175FC"/>
<rect x="955" y="63" width="3" height="50" fill="#C175FC"/>
<rect x="964" y="59" width="3" height="58" fill="#C175FC"/>
<rect x="973" y="51" width="3" height="74" fill="#C175FC"/>
<rect x="982" y="67" width="3" height="42" fill="#C175FC"/>
<rect x="991" y="45" width="3" height="86" fill="#C175FC"/>
<rect x="1000" y="55" width="3" height="66" fill="#C175FC"/>
<rect x="1009" y="59" width="3" height="58" fill="#C175FC"/>
<rect x="1018" y="63" width="3" height="50" fill="#C175FC"/>
<rect x="1027" y="72" width="3" height="32" fill="#C175FC"/>
<rect x="1036" y="80" width="3" height="16" fill="#C175FC"/>
<rect x="1045" y="70" width="3" height="36" fill="#C175FC"/>
<rect x="1054" y="63" width="3" height="50" fill="#C175FC"/>
<rect x="1063" y="72" width="3" height="32" fill="#C175FC"/>
<rect x="1072" y="67" width="3" height="42" fill="#C175FC"/>
<rect x="1081" y="63" width="3" height="50" fill="#C175FC"/>
<rect x="1090" y="59" width="3" height="58" fill="#C175FC"/>
<rect x="1099" y="51" width="3" height="74" fill="#C175FC"/>
<rect x="1108" y="67" width="3" height="42" fill="#C175FC"/>
<rect x="1117" y="45" width="3" height="86" fill="#C175FC"/>
<rect x="1126" y="55" width="3" height="66" fill="#C175FC"/>
<rect x="1135" y="59" width="3" height="58" fill="#C175FC"/>
<rect x="1144" y="63" width="3" height="50" fill="#C175FC"/>
<rect x="1153" y="72" width="3" height="32" fill="#C175FC"/>
<rect x="1162" y="80" width="3" height="16" fill="#C175FC"/>
<rect x="1171" y="70" width="3" height="36" fill="#C175FC"/>
<rect x="1180" y="63" width="3" height="50" fill="#C175FC"/>
<rect x="1189" y="72" width="3" height="32" fill="#C175FC"/>
<rect x="1198" y="67" width="3" height="42" fill="#C175FC"/>
<rect x="1207" y="63" width="3" height="50" fill="#C175FC"/>
<rect x="1216" y="59" width="3" height="58" fill="#C175FC"/>
<rect x="1225" y="51" width="3" height="74" fill="#C175FC"/>
<rect x="1234" y="67" width="3" height="42" fill="#C175FC"/>
<rect x="1243" y="45" width="3" height="86" fill="#C175FC"/>
<rect x="1252" y="55" width="3" height="66" fill="#C175FC"/>
<rect x="1261" y="59" width="3" height="58" fill="#C175FC"/>
<rect x="1270" y="55" width="3" height="66" fill="#C175FC"/>
<rect x="1279" y="66" width="3" height="44" fill="#C175FC"/>
<rect x="1288" y="77" width="3" height="22" fill="#C175FC"/>
<rect x="1297" y="51" width="3" height="74" fill="#C175FC"/>
<rect x="1306" y="37" width="3" height="102" fill="#C175FC"/>
<rect x="1315" y="54" width="3" height="68" fill="#C175FC"/>
<rect x="1324" y="46" width="3" height="84" fill="#C175FC"/>
<rect x="1333" y="37" width="3" height="102" fill="#C175FC"/>
<rect x="1342" y="29" width="3" height="118" fill="#C175FC"/>
<rect x="1351" y="12" width="3" height="152" fill="#C175FC"/>
<rect x="1360" y="46" width="3" height="84" fill="#C175FC"/>
<rect x="1369" width="3" height="176" fill="#C175FC"/>
<rect x="1378" y="21" width="3" height="134" fill="#C175FC"/>
<rect x="1387" y="50" width="3" height="76" fill="#C175FC"/>
<rect x="1396" y="55" width="3" height="66" fill="#C175FC"/>
<rect x="1405" y="66" width="3" height="44" fill="#C175FC"/>
<rect x="1414" y="77" width="3" height="22" fill="#C175FC"/>
<rect x="1423" y="64" width="3" height="48" fill="#C175FC"/>
<rect x="1432" y="55" width="3" height="66" fill="#C175FC"/>
<rect x="1441" y="66" width="3" height="44" fill="#C175FC"/>
<rect x="1450" y="61" width="3" height="54" fill="#C175FC"/>
<rect x="1459" y="55" width="3" height="66" fill="#C175FC"/>
<rect x="1468" y="50" width="3" height="76" fill="#C175FC"/>
<rect x="1477" y="39" width="3" height="98" fill="#C175FC"/>
<rect x="1486" y="61" width="3" height="54" fill="#C175FC"/>
<rect x="1495" y="31" width="3" height="114" fill="#C175FC"/>
<rect x="1504" y="45" width="3" height="86" fill="#C175FC"/>
<rect x="1513" y="50" width="3" height="76" fill="#C175FC"/>
<rect x="1522" y="55" width="3" height="66" fill="#C175FC"/>
<rect x="1531" y="66" width="3" height="44" fill="#C175FC"/>
<rect x="1540" y="77" width="3" height="22" fill="#C175FC"/>
<rect x="1549" y="64" width="3" height="48" fill="#C175FC"/>
<rect x="1558" y="55" width="3" height="66" fill="#C175FC"/>
<rect x="1567" y="66" width="3" height="44" fill="#C175FC"/>
<rect x="1576" y="61" width="3" height="54" fill="#C175FC"/>
<rect x="1585" y="55" width="3" height="66" fill="#C175FC"/>
<rect x="1594" y="50" width="3" height="76" fill="#C175FC"/>
<rect x="1603" y="39" width="3" height="98" fill="#C175FC"/>
<rect x="1612" y="61" width="3" height="54" fill="#C175FC"/>
<rect x="1621" y="31" width="3" height="114" fill="#C175FC"/>
<rect x="1630" y="45" width="3" height="86" fill="#C175FC"/>
<rect x="1639" y="50" width="3" height="76" fill="#C175FC"/>
<rect x="1648" y="37" width="3" height="102" fill="#C175FC"/>
<rect x="1657" y="54" width="3" height="68" fill="#C175FC"/>
<rect x="1666" y="71" width="3" height="34" fill="#C175FC"/>
<rect x="1675" y="50" width="3" height="76" fill="#C175FC"/>
<rect x="1684" y="37" width="3" height="102" fill="#C175FC"/>
<rect x="1693" y="54" width="3" height="68" fill="#C175FC"/>
<rect x="1702" y="46" width="3" height="84" fill="#C175FC"/>
<rect x="1711" y="37" width="3" height="102" fill="#C175FC"/>
<rect x="1720" y="29" width="3" height="118" fill="#C175FC"/>
<rect x="1729" y="12" width="3" height="152" fill="#C175FC"/>
<rect x="1738" y="46" width="3" height="84" fill="#C175FC"/>
<rect width="3" height="50" transform="matrix(-1 0 0 1 1750 63)" fill="#C175FC"/>
<rect width="3" height="38" transform="matrix(-1 0 0 1 1759 69)" fill="#C175FC"/>
<rect width="3" height="34" transform="matrix(-1 0 0 1 1768 71)" fill="#C175FC"/>
<rect width="3" height="28" transform="matrix(-1 0 0 1 1777 74)" fill="#C175FC"/>
<rect width="3" height="20" transform="matrix(-1 0 0 1 1786 78)" fill="#C175FC"/>
<rect width="3" height="10" transform="matrix(-1 0 0 1 1795 83)" fill="#C175FC"/>
<rect width="3" height="22" transform="matrix(-1 0 0 1 1804 77)" fill="#C175FC"/>
<rect width="3" height="28" transform="matrix(-1 0 0 1 1813 74)" fill="#C175FC"/>
<rect width="3" height="20" transform="matrix(-1 0 0 1 1822 78)" fill="#C175FC"/>
<rect width="3" height="24" transform="matrix(-1 0 0 1 1831 76)" fill="#C175FC"/>
<rect width="3" height="28" transform="matrix(-1 0 0 1 1840 74)" fill="#C175FC"/>
<rect width="3" height="34" transform="matrix(-1 0 0 1 1849 71)" fill="#C175FC"/>
<rect width="3" height="42" transform="matrix(-1 0 0 1 1858 67)" fill="#C175FC"/>
<rect width="3" height="24" transform="matrix(-1 0 0 1 1867 76)" fill="#C175FC"/>
<rect width="3" height="50" transform="matrix(-1 0 0 1 1876 63)" fill="#C175FC"/>
<rect width="3" height="38" transform="matrix(-1 0 0 1 1885 69)" fill="#C175FC"/>
</g>
</svg>
